<svg width="1920" height="667" viewBox="0 0 1920 667" fill="none" xmlns="http://www.w3.org/2000/svg">
<g clip-path="url(#clip0_1_2)">
<rect width="1920" height="667" fill="url(#paint0_linear_1_2)"/>
<circle cx="329" cy="165" r="1" fill="white"/>
<circle cx="1545" cy="233" r="1" fill="white"/>
<circle cx="1508" cy="465" r="1" fill="white"/>
<circle cx="1560" cy="294" r="1" fill="white"/>
<circle cx="1014" cy="567" r="1" fill="white"/>
<circle cx="1090" cy="49" r="1" fill="white"/>
<circle cx="910" cy="54" r="1" fill="white"/>
<circle cx="1024" cy="28" r="1" fill="white"/>
<circle cx="782" cy="304" r="1" fill="white"/>
<circle cx="1385" cy="90" r="1" fill="white"/>
<circle cx="329" cy="165" r="1" fill="white"/>
<circle cx="639" cy="79" r="1" fill="white"/>
<circle cx="148" cy="97" r="1" fill="white"/>
<circle cx="153" cy="390" r="1" fill="white"/>
<circle cx="533" cy="407" r="1" fill="white"/>
<circle cx="983" cy="404" r="1" fill="white"/>
<circle cx="1480" cy="90" r="1" fill="white"/>
<circle cx="262" cy="427" r="1" fill="white"/>
<circle cx="970" cy="121" r="1" fill="white"/>
<circle cx="759" cy="289" r="1" fill="white"/>
<circle cx="776" cy="372" r="1" fill="white"/>
<circle cx="926" cy="372" r="1" fill="white"/>
<circle cx="916" cy="459" r="1" fill="white"/>
<circle cx="1116" cy="394" r="1" fill="white"/>
<circle cx="1116" cy="311" r="1" fill="white"/>
<circle cx="1009" cy="261" r="1" fill="white"/>
<circle cx="786" cy="233" r="1" fill="white"/>
<circle cx="621" cy="299" r="1" fill="white"/>
<circle cx="736" cy="464" r="1" fill="white"/>
<circle cx="850" cy="438" r="1" fill="white"/>
<circle cx="950" cy="190" r="1" fill="white"/>
<circle cx="1170" cy="190" r="1" fill="white"/>
<circle cx="916" cy="279" r="1" fill="white"/>
<circle cx="1024" cy="348" r="1" fill="white"/>
<circle cx="1255" cy="294" r="1" fill="white"/>
<circle cx="1082" cy="223" r="1" fill="white"/>
<circle cx="1193" cy="233" r="1" fill="white"/>
<circle cx="1212" cy="428" r="1" fill="white"/>
<circle cx="1239" cy="372" r="1" fill="white"/>
<circle cx="1074" cy="438" r="1" fill="white"/>
<circle cx="759" cy="289" r="1" fill="white"/>
<circle cx="776" cy="372" r="1" fill="white"/>
<circle cx="926" cy="372" r="1" fill="white"/>
<circle cx="916" cy="459" r="1" fill="white"/>
<circle cx="1116" cy="394" r="1" fill="white"/>
<circle cx="1116" cy="311" r="1" fill="white"/>
<circle cx="1009" cy="261" r="1" fill="white"/>
<circle cx="786" cy="233" r="1" fill="white"/>
<circle cx="621" cy="299" r="1" fill="white"/>
<circle cx="736" cy="464" r="1" fill="white"/>
<circle cx="850" cy="438" r="1" fill="white"/>
<circle cx="950" cy="190" r="1" fill="white"/>
<circle cx="1170" cy="190" r="1" fill="white"/>
<circle cx="916" cy="279" r="1" fill="white"/>
<circle cx="1024" cy="348" r="1" fill="white"/>
<circle cx="1255" cy="294" r="1" fill="white"/>
<circle cx="1082" cy="223" r="1" fill="white"/>
<circle cx="1193" cy="233" r="1" fill="white"/>
<circle cx="1069" cy="203" r="1" fill="white"/>
<circle cx="1086" cy="286" r="1" fill="white"/>
<circle cx="1236" cy="286" r="1" fill="white"/>
<circle cx="1226" cy="373" r="1" fill="white"/>
<circle cx="931" cy="213" r="1" fill="white"/>
<circle cx="1046" cy="378" r="1" fill="white"/>
<circle cx="1160" cy="352" r="1" fill="white"/>
<circle cx="1226" cy="193" r="1" fill="white"/>
<circle cx="578" cy="221" r="1" fill="white"/>
<circle cx="595" cy="304" r="1" fill="white"/>
<circle cx="745" cy="304" r="1" fill="white"/>
<circle cx="735" cy="391" r="1" fill="white"/>
<circle cx="935" cy="326" r="1" fill="white"/>
<circle cx="935" cy="243" r="1" fill="white"/>
<circle cx="828" cy="193" r="1" fill="white"/>
<circle cx="605" cy="165" r="1" fill="white"/>
<circle cx="669" cy="370" r="1" fill="white"/>
<circle cx="735" cy="211" r="1" fill="white"/>
<circle cx="843" cy="280" r="1" fill="white"/>
<circle cx="1074" cy="226" r="1" fill="white"/>
<circle cx="1012" cy="165" r="1" fill="white"/>
<circle cx="610" cy="458" r="1" fill="white"/>
<circle cx="774" cy="415" r="1" fill="white"/>
<circle cx="994" cy="415" r="1" fill="white"/>
<circle cx="906" cy="448" r="1" fill="white"/>
<circle cx="1017" cy="458" r="1" fill="white"/>
<circle cx="1154" cy="432" r="1" fill="white"/>
<circle cx="883" cy="452" r="1" fill="white"/>
<circle cx="1103" cy="452" r="1" fill="white"/>
<circle cx="1262" cy="255" r="1" fill="white"/>
<circle cx="1037" cy="287" r="1" fill="white"/>
<circle cx="601" cy="83" r="1" fill="white"/>
<circle cx="618" cy="166" r="1" fill="white"/>
<circle cx="768" cy="166" r="1" fill="white"/>
<circle cx="758" cy="253" r="1" fill="white"/>
<circle cx="958" cy="188" r="1" fill="white"/>
<circle cx="958" cy="105" r="1" fill="white"/>
<circle cx="851" cy="55" r="1" fill="white"/>
<circle cx="628" cy="27" r="1" fill="white"/>
<circle cx="463" cy="93" r="1" fill="white"/>
<circle cx="578" cy="258" r="1" fill="white"/>
<circle cx="692" cy="232" r="1" fill="white"/>
<circle cx="758" cy="73" r="1" fill="white"/>
<circle cx="866" cy="142" r="1" fill="white"/>
<circle cx="1097" cy="88" r="1" fill="white"/>
<circle cx="924" cy="17" r="1" fill="white"/>
<circle cx="1035" cy="27" r="1" fill="white"/>
<circle cx="121" cy="652" r="1" fill="white"/>
<circle cx="57" cy="47" r="1" fill="white"/>
<circle cx="207" cy="47" r="1" fill="white"/>
<circle cx="197" cy="134" r="1" fill="white"/>
<circle cx="397" cy="69" r="1" fill="white"/>
<circle cx="17" cy="139" r="1" fill="white"/>
<circle cx="131" cy="113" r="1" fill="white"/>
<circle cx="305" cy="23" r="1" fill="white"/>
<circle cx="336" cy="298" r="1" fill="white"/>
<circle cx="1552" cy="366" r="1" fill="white"/>
<circle cx="1567" cy="427" r="1" fill="white"/>
<circle cx="789" cy="437" r="1" fill="white"/>
<circle cx="1392" cy="223" r="1" fill="white"/>
<circle cx="336" cy="298" r="1" fill="white"/>
<circle cx="646" cy="212" r="1" fill="white"/>
<circle cx="155" cy="230" r="1" fill="white"/>
<circle cx="1487" cy="223" r="1" fill="white"/>
<circle cx="977" cy="254" r="1" fill="white"/>
<circle cx="1044" cy="420" r="1" fill="white"/>
<circle cx="651" cy="322" r="1" fill="white"/>
<circle cx="668" cy="405" r="1" fill="white"/>
<circle cx="818" cy="405" r="1" fill="white"/>
<circle cx="808" cy="492" r="1" fill="white"/>
<circle cx="1008" cy="427" r="1" fill="white"/>
<circle cx="1008" cy="344" r="1" fill="white"/>
<circle cx="901" cy="294" r="1" fill="white"/>
<circle cx="678" cy="266" r="1" fill="white"/>
<circle cx="513" cy="332" r="1" fill="white"/>
<circle cx="628" cy="497" r="1" fill="white"/>
<circle cx="742" cy="471" r="1" fill="white"/>
<circle cx="842" cy="223" r="1" fill="white"/>
<circle cx="1062" cy="223" r="1" fill="white"/>
<circle cx="808" cy="312" r="1" fill="white"/>
<circle cx="916" cy="381" r="1" fill="white"/>
<circle cx="1147" cy="327" r="1" fill="white"/>
<circle cx="974" cy="256" r="1" fill="white"/>
<circle cx="1085" cy="266" r="1" fill="white"/>
<circle cx="580" cy="604" r="1" fill="white"/>
<circle cx="656" cy="86" r="1" fill="white"/>
<circle cx="856" cy="21" r="1" fill="white"/>
<circle cx="476" cy="91" r="1" fill="white"/>
<circle cx="590" cy="65" r="1" fill="white"/>
<circle cx="1382" cy="145" r="1" fill="white"/>
<circle cx="1399" cy="228" r="1" fill="white"/>
<circle cx="1549" cy="228" r="1" fill="white"/>
<circle cx="1539" cy="315" r="1" fill="white"/>
<circle cx="1739" cy="250" r="1" fill="white"/>
<circle cx="1739" cy="167" r="1" fill="white"/>
<circle cx="1632" cy="117" r="1" fill="white"/>
<circle cx="1409" cy="89" r="1" fill="white"/>
<circle cx="1244" cy="155" r="1" fill="white"/>
<circle cx="1359" cy="320" r="1" fill="white"/>
<circle cx="1473" cy="294" r="1" fill="white"/>
<circle cx="1573" cy="46" r="1" fill="white"/>
<circle cx="1793" cy="46" r="1" fill="white"/>
<circle cx="1539" cy="135" r="1" fill="white"/>
<circle cx="1647" cy="204" r="1" fill="white"/>
<circle cx="1878" cy="150" r="1" fill="white"/>
<circle cx="1705" cy="79" r="1" fill="white"/>
<circle cx="1816" cy="89" r="1" fill="white"/>
<circle cx="963" cy="271" r="1" fill="white"/>
<circle cx="980" cy="354" r="1" fill="white"/>
<circle cx="1130" cy="354" r="1" fill="white"/>
<circle cx="1120" cy="441" r="1" fill="white"/>
<circle cx="1320" cy="376" r="1" fill="white"/>
<circle cx="1320" cy="293" r="1" fill="white"/>
<circle cx="1213" cy="243" r="1" fill="white"/>
<circle cx="990" cy="215" r="1" fill="white"/>
<circle cx="825" cy="281" r="1" fill="white"/>
<circle cx="940" cy="446" r="1" fill="white"/>
<circle cx="1054" cy="420" r="1" fill="white"/>
<circle cx="1154" cy="172" r="1" fill="white"/>
<circle cx="1374" cy="172" r="1" fill="white"/>
<circle cx="1120" cy="261" r="1" fill="white"/>
<circle cx="1228" cy="330" r="1" fill="white"/>
<circle cx="1459" cy="276" r="1" fill="white"/>
<circle cx="1286" cy="205" r="1" fill="white"/>
<circle cx="1397" cy="215" r="1" fill="white"/>
<circle cx="57" cy="281" r="1" fill="white"/>
<circle cx="74" cy="364" r="1" fill="white"/>
<circle cx="224" cy="364" r="1" fill="white"/>
<circle cx="214" cy="451" r="1" fill="white"/>
<circle cx="414" cy="386" r="1" fill="white"/>
<circle cx="414" cy="303" r="1" fill="white"/>
<circle cx="307" cy="253" r="1" fill="white"/>
<circle cx="84" cy="225" r="1" fill="white"/>
<circle cx="34" cy="456" r="1" fill="white"/>
<circle cx="148" cy="430" r="1" fill="white"/>
<circle cx="248" cy="182" r="1" fill="white"/>
<circle cx="468" cy="182" r="1" fill="white"/>
<circle cx="214" cy="271" r="1" fill="white"/>
<circle cx="322" cy="340" r="1" fill="white"/>
<circle cx="553" cy="286" r="1" fill="white"/>
<circle cx="380" cy="215" r="1" fill="white"/>
<circle cx="491" cy="225" r="1" fill="white"/>
<circle cx="105" cy="481" r="1" fill="white"/>
<circle cx="122" cy="564" r="1" fill="white"/>
<circle cx="272" cy="564" r="1" fill="white"/>
<circle cx="262" cy="651" r="1" fill="white"/>
<circle cx="462" cy="586" r="1" fill="white"/>
<circle cx="462" cy="503" r="1" fill="white"/>
<circle cx="355" cy="453" r="1" fill="white"/>
<circle cx="132" cy="425" r="1" fill="white"/>
<circle cx="82" cy="656" r="1" fill="white"/>
<circle cx="196" cy="630" r="1" fill="white"/>
<circle cx="296" cy="382" r="1" fill="white"/>
<circle cx="516" cy="382" r="1" fill="white"/>
<circle cx="262" cy="471" r="1" fill="white"/>
<circle cx="370" cy="540" r="1" fill="white"/>
<circle cx="601" cy="486" r="1" fill="white"/>
<circle cx="428" cy="415" r="1" fill="white"/>
<circle cx="539" cy="425" r="1" fill="white"/>
<circle cx="1454" cy="294" r="1" fill="white"/>
<circle cx="1471" cy="377" r="1" fill="white"/>
<circle cx="1621" cy="377" r="1" fill="white"/>
<circle cx="1611" cy="464" r="1" fill="white"/>
<circle cx="1811" cy="399" r="1" fill="white"/>
<circle cx="1811" cy="316" r="1" fill="white"/>
<circle cx="1704" cy="266" r="1" fill="white"/>
<circle cx="1481" cy="238" r="1" fill="white"/>
<circle cx="1316" cy="304" r="1" fill="white"/>
<circle cx="1431" cy="469" r="1" fill="white"/>
<circle cx="1545" cy="443" r="1" fill="white"/>
<circle cx="1645" cy="195" r="1" fill="white"/>
<circle cx="1865" cy="195" r="1" fill="white"/>
<circle cx="1611" cy="284" r="1" fill="white"/>
<circle cx="1719" cy="353" r="1" fill="white"/>
<circle cx="1777" cy="228" r="1" fill="white"/>
<circle cx="1888" cy="238" r="1" fill="white"/>
<circle cx="285" cy="601" r="1" fill="white"/>
<circle cx="642" cy="623" r="1" fill="white"/>
<circle cx="535" cy="573" r="1" fill="white"/>
<circle cx="312" cy="545" r="1" fill="white"/>
<circle cx="147" cy="611" r="1" fill="white"/>
<circle cx="476" cy="502" r="1" fill="white"/>
<circle cx="696" cy="502" r="1" fill="white"/>
<circle cx="442" cy="591" r="1" fill="white"/>
<circle cx="550" cy="660" r="1" fill="white"/>
<circle cx="781" cy="606" r="1" fill="white"/>
<circle cx="608" cy="535" r="1" fill="white"/>
<circle cx="719" cy="545" r="1" fill="white"/>
<circle cx="50" cy="601" r="1" fill="white"/>
<circle cx="407" cy="623" r="1" fill="white"/>
<circle cx="300" cy="573" r="1" fill="white"/>
<circle cx="77" cy="545" r="1" fill="white"/>
<circle cx="241" cy="502" r="1" fill="white"/>
<circle cx="461" cy="502" r="1" fill="white"/>
<circle cx="207" cy="591" r="1" fill="white"/>
<circle cx="315" cy="660" r="1" fill="white"/>
<circle cx="546" cy="606" r="1" fill="white"/>
<circle cx="373" cy="535" r="1" fill="white"/>
<circle cx="484" cy="545" r="1" fill="white"/>
<circle cx="970" cy="444" r="1" fill="white"/>
<circle cx="987" cy="527" r="1" fill="white"/>
<circle cx="1137" cy="527" r="1" fill="white"/>
<circle cx="1127" cy="614" r="1" fill="white"/>
<circle cx="1327" cy="549" r="1" fill="white"/>
<circle cx="1327" cy="466" r="1" fill="white"/>
<circle cx="1220" cy="416" r="1" fill="white"/>
<circle cx="997" cy="388" r="1" fill="white"/>
<circle cx="832" cy="454" r="1" fill="white"/>
<circle cx="947" cy="619" r="1" fill="white"/>
<circle cx="1061" cy="593" r="1" fill="white"/>
<circle cx="1161" cy="345" r="1" fill="white"/>
<circle cx="1381" cy="345" r="1" fill="white"/>
<circle cx="1127" cy="434" r="1" fill="white"/>
<circle cx="1235" cy="503" r="1" fill="white"/>
<circle cx="1466" cy="449" r="1" fill="white"/>
<circle cx="1293" cy="378" r="1" fill="white"/>
<circle cx="1404" cy="388" r="1" fill="white"/>
<circle cx="1386" cy="431" r="1" fill="white"/>
<circle cx="1403" cy="514" r="1" fill="white"/>
<circle cx="1553" cy="514" r="1" fill="white"/>
<circle cx="1543" cy="601" r="1" fill="white"/>
<circle cx="1743" cy="536" r="1" fill="white"/>
<circle cx="1743" cy="453" r="1" fill="white"/>
<circle cx="1636" cy="403" r="1" fill="white"/>
<circle cx="1413" cy="375" r="1" fill="white"/>
<circle cx="1248" cy="441" r="1" fill="white"/>
<circle cx="1363" cy="606" r="1" fill="white"/>
<circle cx="1477" cy="580" r="1" fill="white"/>
<circle cx="1577" cy="332" r="1" fill="white"/>
<circle cx="1797" cy="332" r="1" fill="white"/>
<circle cx="1543" cy="421" r="1" fill="white"/>
<circle cx="1651" cy="490" r="1" fill="white"/>
<circle cx="1882" cy="436" r="1" fill="white"/>
<circle cx="1709" cy="365" r="1" fill="white"/>
<circle cx="1820" cy="375" r="1" fill="white"/>
<circle cx="561" cy="655" r="1" fill="white"/>
<circle cx="781" cy="655" r="1" fill="white"/>
<circle cx="1127" cy="625" r="1" fill="white"/>
<circle cx="1347" cy="625" r="1" fill="white"/>
<circle cx="1259" cy="658" r="1" fill="white"/>
<circle cx="121" cy="652" r="1" fill="white"/>
<circle cx="40" cy="630" r="1" fill="white"/>
<circle cx="397" cy="652" r="1" fill="white"/>
<circle cx="290" cy="602" r="1" fill="white"/>
<circle cx="67" cy="574" r="1" fill="white"/>
<circle cx="231" cy="531" r="1" fill="white"/>
<circle cx="451" cy="531" r="1" fill="white"/>
<circle cx="197" cy="620" r="1" fill="white"/>
<circle cx="536" cy="635" r="1" fill="white"/>
<circle cx="363" cy="564" r="1" fill="white"/>
<circle cx="474" cy="574" r="1" fill="white"/>
<circle cx="121" cy="652" r="1" fill="white"/>
<circle cx="40" cy="630" r="1" fill="white"/>
<circle cx="397" cy="652" r="1" fill="white"/>
<circle cx="290" cy="602" r="1" fill="white"/>
<circle cx="67" cy="574" r="1" fill="white"/>
<circle cx="231" cy="531" r="1" fill="white"/>
<circle cx="451" cy="531" r="1" fill="white"/>
<circle cx="197" cy="620" r="1" fill="white"/>
<circle cx="536" cy="635" r="1" fill="white"/>
<circle cx="363" cy="564" r="1" fill="white"/>
<circle cx="474" cy="574" r="1" fill="white"/>
<circle cx="1032" cy="656" r="1" fill="white"/>
<circle cx="1282" cy="628" r="1" fill="white"/>
<circle cx="1059" cy="600" r="1" fill="white"/>
<circle cx="894" cy="666" r="1" fill="white"/>
<circle cx="1223" cy="557" r="1" fill="white"/>
<circle cx="1443" cy="557" r="1" fill="white"/>
<circle cx="1189" cy="646" r="1" fill="white"/>
<circle cx="1528" cy="661" r="1" fill="white"/>
<circle cx="1355" cy="590" r="1" fill="white"/>
<circle cx="1466" cy="600" r="1" fill="white"/>
<circle cx="1570" cy="582" r="1" fill="white"/>
<circle cx="1489" cy="560" r="1" fill="white"/>
<circle cx="1506" cy="643" r="1" fill="white"/>
<circle cx="1656" cy="643" r="1" fill="white"/>
<circle cx="1846" cy="665" r="1" fill="white"/>
<circle cx="1846" cy="582" r="1" fill="white"/>
<circle cx="1739" cy="532" r="1" fill="white"/>
<circle cx="1516" cy="504" r="1" fill="white"/>
<circle cx="1351" cy="570" r="1" fill="white"/>
<circle cx="1680" cy="461" r="1" fill="white"/>
<circle cx="1900" cy="461" r="1" fill="white"/>
<circle cx="1646" cy="550" r="1" fill="white"/>
<circle cx="1754" cy="619" r="1" fill="white"/>
<circle cx="1812" cy="494" r="1" fill="white"/>
</g>
<defs>
<linearGradient id="paint0_linear_1_2" x1="960" y1="0" x2="960" y2="667" gradientUnits="userSpaceOnUse">
<stop stop-color="#110B37"/>
<stop offset="0.5" stop-color="#2B1E7A"/>
<stop offset="1" stop-color="#23157E"/>
</linearGradient>
<clipPath id="clip0_1_2">
<rect width="1920" height="667" fill="white"/>
</clipPath>
</defs>
</svg>
